<svg xmlns="http://www.w3.org/2000/svg" xmlns:xlink="http://www.w3.org/1999/xlink" viewBox="0 0 612 323.47"><defs><style>.cls-1{fill:#fff;}.cls-2{fill:url(#Degradado_sin_nombre_11);}.cls-3{fill:url(#Degradado_sin_nombre_11-2);}.cls-4{fill:url(#Degradado_sin_nombre_11-3);}.cls-5{fill:url(#Degradado_sin_nombre_11-4);}.cls-6{fill:url(#Degradado_sin_nombre_11-5);}.cls-7{fill:url(#Degradado_sin_nombre_11-6);}.cls-8{fill:url(#Degradado_sin_nombre_11-7);}.cls-9{fill:url(#Degradado_sin_nombre_11-8);}.cls-10{fill:url(#Degradado_sin_nombre_11-9);}.cls-11{fill:url(#Degradado_sin_nombre_11-10);}.cls-12{fill:url(#Degradado_sin_nombre_161);}</style><linearGradient id="Degradado_sin_nombre_11" x1="-94.55" y1="121.25" x2="27.19" y2="121.25" gradientTransform="matrix(-1, 0, 0, 1, 275.58, 0)" gradientUnits="userSpaceOnUse"><stop offset="0" stop-color="#404691"/><stop offset="0.11" stop-color="#434a94"/><stop offset="0.21" stop-color="#4c569b"/><stop offset="0.28" stop-color="#5763a4"/><stop offset="0.67" stop-color="#c65998"/><stop offset="0.89" stop-color="#c65998"/><stop offset="1" stop-color="#d07ca1"/></linearGradient><linearGradient id="Degradado_sin_nombre_11-2" x1="-37.68" y1="96" x2="-33.38" y2="96" xlink:href="#Degradado_sin_nombre_11"/><linearGradient id="Degradado_sin_nombre_11-3" x1="-38.6" y1="105.09" x2="-32.45" y2="105.09" xlink:href="#Degradado_sin_nombre_11"/><linearGradient id="Degradado_sin_nombre_11-4" x1="-58.96" y1="111.05" x2="-16.51" y2="111.05" xlink:href="#Degradado_sin_nombre_11"/><linearGradient id="Degradado_sin_nombre_11-5" x1="-42.29" y1="150.76" x2="-31.53" y2="150.76" xlink:href="#Degradado_sin_nombre_11"/><linearGradient id="Degradado_sin_nombre_11-6" x1="-58.89" y1="164.26" x2="-14.63" y2="164.26" xlink:href="#Degradado_sin_nombre_11"/><linearGradient id="Degradado_sin_nombre_11-7" x1="249.03" y1="190.76" x2="279.53" y2="190.76" gradientTransform="matrix(1, 0, 0, 1, 0, 0)" xlink:href="#Degradado_sin_nombre_11"/><linearGradient id="Degradado_sin_nombre_11-8" x1="282.89" y1="191.99" x2="308.72" y2="191.99" gradientTransform="matrix(1, 0, 0, 1, 0, 0)" xlink:href="#Degradado_sin_nombre_11"/><linearGradient id="Degradado_sin_nombre_11-9" x1="311.56" y1="191.96" x2="340.24" y2="191.96" gradientTransform="matrix(1, 0, 0, 1, 0, 0)" xlink:href="#Degradado_sin_nombre_11"/><linearGradient id="Degradado_sin_nombre_11-10" x1="342.8" y1="190.76" x2="370.13" y2="190.76" gradientTransform="matrix(1, 0, 0, 1, 0, 0)" xlink:href="#Degradado_sin_nombre_11"/><linearGradient id="Degradado_sin_nombre_161" x1="363.77" y1="99.65" x2="373.87" y2="82.16" gradientUnits="userSpaceOnUse"><stop offset="0" stop-color="#5763a4"/><stop offset="0" stop-color="#5763a4"/><stop offset="0.13" stop-color="#5763a4"/><stop offset="0.21" stop-color="#6162a3"/><stop offset="0.36" stop-color="#7d60a0"/><stop offset="0.56" stop-color="#a95c9b"/><stop offset="0.67" stop-color="#c65998"/><stop offset="0.89" stop-color="#c65998"/><stop offset="1" stop-color="#c65998"/></linearGradient></defs><title>banner29</title><g id="Capa_22" data-name="Capa 22"><rect class="cls-1" width="612" height="323.47"/></g><g id="Capa_20" data-name="Capa 20"><path class="cls-2" d="M259.16,131.09s11.68,6.15,24,1.85c0,0,2.46-1.85,7.91,3.73a7.57,7.57,0,0,0,.63.49c2.52,1.92,17,14.38,37.3.18.34-.23.26-.1,1.08-.63s9.4-4.76,13.63-12.69c0,0,5.53-14.14,18.44-17.83l8-1.84s-1.85-3.69-8-3.69c0,0-9.53.31-13.52,3.69l-11.68,9.84a10.58,10.58,0,0,1-4.31,2.46s-12.29,3.68-21.51,3.68-16.91-2.15-19.67-4.91c0,0-16-15.37-28.59-16.91,0,0-14.75-1.84-14.45,15.68C248.4,114.19,247.48,126.17,259.16,131.09Zm-.92-25.51c6.4-9,20.34,14.72,20.59,15.06,4.4,6,6.46,7.07,6.46,7.07-6.15,8-18.44-1.84-18.44-1.84C250.55,113.88,258.24,105.58,258.24,105.58Zm106-3.38s3.63.92,3.63,1.54l-2.15.3S361.7,103.12,364.28,102.2Z"/><circle class="cls-3" cx="311.11" cy="96" r="2.15"/><rect class="cls-4" x="308.03" y="100.48" width="6.15" height="9.22" rx="2.18" ry="2.18"/><path class="cls-5" d="M330.29,114s-24.92,8.3-38.2-1.67a14,14,0,0,0,6.5-2.44s9.67-9.23,21-2.67a25.05,25.05,0,0,1,4.77,2.79c2.45,1.85,8.59,3.35,10.21,2.6Z"/><path class="cls-6" d="M309.26,150.46a4.86,4.86,0,0,1,0-3.08,5.82,5.82,0,0,1-2.15-3.38,9.35,9.35,0,0,0,10.76-.3,4.53,4.53,0,0,1-1.91,3.36,15.2,15.2,0,0,1-5.23.75,12.3,12.3,0,0,0,5.42-.07,4.59,4.59,0,0,1-.12,2.72s3.07,1.84,1.23,7.37h-9.84S306.19,151.69,309.26,150.46Z"/><path class="cls-7" d="M290.21,165.21c0,4.92,22.13,4.3,22.13,4.3s22.43.62,22.12-4.3c-.07-1.26-1.22-2.45-7.06-3.69,0,0-2.46-3.07-9.22-2.45H306.81c-6.77-.62-9.22,2.45-9.22,2.45C291.44,162.76,290.21,164,290.21,165.21Zm7.62-2.93a.69.69,0,0,1,.84-.52,57.83,57.83,0,0,0,27.29,0,.71.71,0,1,1,.41,1.35,53.8,53.8,0,0,1-13.92,1.65,61.14,61.14,0,0,1-14.1-1.63A.71.71,0,0,1,297.83,162.28Z"/><path class="cls-8" d="M254.09,191.6v18.7a.71.71,0,0,1-.7.7H249V173.65a3.12,3.12,0,0,1,3.12-3.12h16.93c5.06,0,9.16,3.18,9.16,8.67v5.23c0,4.74-3.4,7.33-7.33,8.35L279.53,211h-4.69a1.22,1.22,0,0,1-1-.65l-8.19-17.3h-8.46c-1.51,0-2.64-.43-3-1.45Zm15-3.18a4.09,4.09,0,0,0,4.09-4.1v-5.06a4.1,4.1,0,0,0-4.09-4.1h-14a1,1,0,0,0-1,1V187.4a1,1,0,0,0,1,1Z"/><path class="cls-9" d="M282.89,198.3V185.45c0-5.64,3.94-8.61,8.86-8.61h8.12c4.91,0,8.85,3,8.85,8.61v7c0,1-.12,1.88-1.57,1.88H290.53a2.89,2.89,0,0,1-2.36-1.16v5.4a3.54,3.54,0,0,0,3.58,3.58h15a.67.67,0,0,1,.67.67v4.36h-15.7A8.82,8.82,0,0,1,282.89,198.3Zm8.86-16.49a3.3,3.3,0,0,0-3.58,3.57v3.28a.67.67,0,0,0,.6.67H302.9a.68.68,0,0,0,.67-.67v-3.28c0-2.42-1.15-3.57-3.52-3.57Z"/><path class="cls-10" d="M311.56,176.77h5.16a.88.88,0,0,1,.73.55l8.42,21.52,8.43-21.52a.88.88,0,0,1,.79-.55h5.15l-12.43,29.9a.78.78,0,0,1-.72.48H324.6a.79.79,0,0,1-.73-.48Z"/><path class="cls-11" d="M347.87,179.26V189.5a3.42,3.42,0,0,1,2.64-1.08h17.73v3.93a.71.71,0,0,1-.7.7H347.87v9.22a4.09,4.09,0,0,0,4.09,4.09h17.47a.72.72,0,0,1,.7.71V211H352a9.16,9.16,0,0,1-9.16-9.16V179.69a9.15,9.15,0,0,1,9.16-9.16h18.17v3.93a.72.72,0,0,1-.7.7H352A4.1,4.1,0,0,0,347.87,179.26Z"/><path class="cls-12" d="M366.58,101.27s-8.59-10,1.24-14.18c0,0,3.5-.73,1.17-7.74,0,0,3.43,4.81,2.39,8.2a9.75,9.75,0,0,0,.11,4.17s2.44,6.07-1.46,6.06C370,97.78,365.89,97.79,366.58,101.27Z"/></g></svg>