<svg id="Capa_7" data-name="Capa 7" xmlns="http://www.w3.org/2000/svg" viewBox="0 0 13.89 8"><defs><style>.cls-1{fill:#a51d07;}.cls-2{fill:#fff;}.cls-3{fill:#140d6b;}</style></defs><title>icon-us</title><rect class="cls-1" y="2.53" width="13.89" height="0.42"/><rect class="cls-1" y="3.37" width="13.89" height="0.42"/><rect class="cls-1" y="4.21" width="13.89" height="0.42"/><rect class="cls-1" width="13.89" height="0.42"/><rect class="cls-1" y="0.84" width="13.89" height="0.42"/><rect class="cls-1" y="1.68" width="13.89" height="0.42"/><rect class="cls-1" y="5.89" width="13.89" height="0.42"/><rect class="cls-1" y="6.74" width="13.89" height="0.42"/><rect class="cls-1" y="7.58" width="13.89" height="0.42"/><rect class="cls-1" y="5.05" width="13.89" height="0.42"/><rect class="cls-2" y="2.95" width="13.89" height="0.42"/><rect class="cls-2" y="3.79" width="13.89" height="0.42"/><rect class="cls-2" y="4.63" width="13.89" height="0.42"/><rect class="cls-2" y="0.42" width="13.89" height="0.42"/><rect class="cls-2" y="1.26" width="13.89" height="0.42"/><rect class="cls-2" y="2.11" width="13.89" height="0.42"/><rect class="cls-2" y="6.32" width="13.89" height="0.42"/><rect class="cls-2" y="7.16" width="13.89" height="0.42"/><rect class="cls-3" width="5.89" height="3.79"/><rect class="cls-2" y="5.47" width="13.89" height="0.42"/><circle class="cls-2" cx="0.74" cy="0.63" r="0.21"/><circle class="cls-2" cx="1.58" cy="0.63" r="0.21"/><circle class="cls-2" cx="2.42" cy="0.63" r="0.21"/><circle class="cls-2" cx="3.26" cy="0.63" r="0.21"/><circle class="cls-2" cx="4.11" cy="0.63" r="0.21"/><circle class="cls-2" cx="4.95" cy="0.63" r="0.21"/><circle class="cls-2" cx="0.74" cy="1.47" r="0.21"/><circle class="cls-2" cx="1.58" cy="1.47" r="0.21"/><circle class="cls-2" cx="2.42" cy="1.47" r="0.21"/><circle class="cls-2" cx="3.26" cy="1.47" r="0.21"/><circle class="cls-2" cx="4.11" cy="1.47" r="0.21"/><circle class="cls-2" cx="4.95" cy="1.47" r="0.21"/><circle class="cls-2" cx="0.74" cy="2.32" r="0.21"/><circle class="cls-2" cx="1.58" cy="2.32" r="0.21"/><circle class="cls-2" cx="2.42" cy="2.32" r="0.21"/><circle class="cls-2" cx="3.26" cy="2.32" r="0.21"/><circle class="cls-2" cx="4.11" cy="2.32" r="0.21"/><circle class="cls-2" cx="4.95" cy="2.32" r="0.21"/><circle class="cls-2" cx="0.74" cy="3.16" r="0.21"/><circle class="cls-2" cx="1.58" cy="3.16" r="0.21"/><circle class="cls-2" cx="2.42" cy="3.16" r="0.21"/><circle class="cls-2" cx="3.26" cy="3.16" r="0.21"/><circle class="cls-2" cx="4.11" cy="3.16" r="0.21"/><circle class="cls-2" cx="4.95" cy="3.16" r="0.21"/></svg>