<svg id="Capa_1" data-name="Capa 1" xmlns="http://www.w3.org/2000/svg" xmlns:xlink="http://www.w3.org/1999/xlink" viewBox="0 0 34.66 25.44"><defs><style>.cls-1{fill:none;}.cls-2{clip-path:url(#clip-path);}.cls-3{fill:#1800bf;}.cls-4{fill:#d8b830;}.cls-5{fill:#bf2100;}.cls-6{fill:#fff;}.cls-7{opacity:0.07;}.cls-8{opacity:0.21;}.cls-9{opacity:0.4;}</style><clipPath id="clip-path" transform="translate(-3.72 -5.96)"><path class="cls-1" d="M13.39,12.19c.54-.77,3.3-4.39,7.43-3.39a5.87,5.87,0,0,1,1.56.63,6.75,6.75,0,0,0,6.68-.19,7.11,7.11,0,0,0,.79-.51A12.09,12.09,0,0,1,34.3,7s-1.48,3.27,0,5a3.94,3.94,0,0,1,.74,1.25,8.34,8.34,0,0,1,.15,4.88,6.1,6.1,0,0,1-2.05,3.11c-.61.51-1,1.48,1,3.12,0,0-6.2-2.59-11,0,0,0-9.47,6-9.81,1.89,0,0-.35-2.58-5.51,1.72A29.68,29.68,0,0,0,7.1,10.79s4.23,5.07,6.14,1.65Z"/></clipPath></defs><title>icon-vzla</title><g class="cls-2"><polygon class="cls-3" points="33.05 14.79 1.74 18.27 0.63 8.29 10.39 7.21 31.94 4.81 33.05 14.79"/><path class="cls-4" d="M35.78,12.68a7.61,7.61,0,0,0-6.48.55,3.09,3.09,0,0,0-.37.26c-1.17.91-4.61,1.66-8.92.57-3.1-.76-2.83-2.48-6.68,1.29a6.84,6.84,0,0,1-8.86.81L3.72,9.44,35,6S40.44,14.26,35.78,12.68Z" transform="translate(-3.72 -5.96)"/><path class="cls-5" d="M37.39,27.2,6.08,30.68l-.7-5.95s7-5.09,7.92-3.62c1.55,2.59,4.26-.22,8.78-1.72,2.35-.78,4.42-1.12,5.51-.34,1.75,1.26,3.66.52,4.81.34a7.15,7.15,0,0,0,5.06-3.7C39.57,12.11,37.39,27.2,37.39,27.2Z" transform="translate(-3.72 -5.96)"/><ellipse class="cls-6" cx="13.05" cy="12.45" rx="0.55" ry="0.51"/><ellipse class="cls-6" cx="14.62" cy="11.3" rx="0.55" ry="0.51"/><ellipse class="cls-6" cx="16.19" cy="10.3" rx="0.55" ry="0.51"/><ellipse class="cls-6" cx="17.98" cy="9.79" rx="0.55" ry="0.51"/><ellipse class="cls-6" cx="24.78" cy="11.94" rx="0.55" ry="0.51"/><ellipse class="cls-6" cx="23" cy="11.37" rx="0.55" ry="0.51"/><ellipse class="cls-6" cx="21.39" cy="10.74" rx="0.55" ry="0.51"/><ellipse class="cls-6" cx="19.82" cy="10.06" rx="0.55" ry="0.51"/><path class="cls-7" d="M22.64,7.19v1c0,.17,3.79,13.15,8.54,15.57,1.36.69,0,1.83-1.07,2.16-2.16.64-4.43-1-5.14-3.64-1.34-5-3.3-12.93-2.47-14.11.56-.79.32-.86,0-.51S21.38,7.39,22.64,7.19Z" transform="translate(-3.72 -5.96)"/><g class="cls-8"><g class="cls-9"><path d="M11.42,12.61c.13,2.64.21,5.29.21,7.93,0,1.33,0,2.65-.08,4,0,.69-.19,5.26,1.51,3.36,1-1.16.35-5,.45-6.35s.33-2.38.38-3.58c0-.53-.48-3.86-.28-4.05H11.49l.06,0c1.43,1.3,3.56-.82,2.12-2.12l.06,1.75-2.5-1.46c-.8,5.79.18,11.85-.41,17.71l2.94-.4-.27-.71c-.35-.92-1.74-1.64-2.5-.66l-.2.25,2.56,1.06a91,91,0,0,0,.49-15.84l-2.95.4.22,1.17c.23,1.89,3.23,1.92,3,0a18.64,18.64,0,0,0-.33-2,1.5,1.5,0,0,0-2.94.39,96.12,96.12,0,0,1-.49,15.84,1.51,1.51,0,0,0,2.56,1.06l.2-.25-2.51-.66.27.71a1.51,1.51,0,0,0,3-.4,93.26,93.26,0,0,0,.35-9.46c0-2.41-.38-5.06-.05-7.46a1.52,1.52,0,0,0-2.51-1.46,1.73,1.73,0,0,0-.06,2.5c1.43,1.3,3.56-.82,2.12-2.12l-.06-.05a1.54,1.54,0,0,0-2.12,0c-.85.79-.71,2.28-.7,3.33,0,2.39-.22,4.63-.34,7-.1,2.13-.58,4.38-.58,6.47A2.86,2.86,0,0,0,10.93,31c2,1.35,3.19-.83,3.43-2.51.73-5.13.32-10.7.06-15.86-.1-1.92-3.1-1.93-3,0Z" transform="translate(-3.72 -5.96)"/></g></g></g></svg>