<svg id="Capa_3" data-name="Capa 3" xmlns="http://www.w3.org/2000/svg" xmlns:xlink="http://www.w3.org/1999/xlink" viewBox="0 0 48 30.24"><defs><style>.cls-1{fill:none;}.cls-2{clip-path:url(#clip-path);}.cls-3{fill:#fff;}.cls-4{fill:#a51d07;}.cls-5{fill:#140d6b;}.cls-6{opacity:0.07;}.cls-7{opacity:0.21;}.cls-8{opacity:0.4;}</style><clipPath id="clip-path" transform="translate(2.1 -4.22)"><path class="cls-1" d="M13.27,12.5c.53-.78,3.24-4.44,7.38-3.5a5.86,5.86,0,0,1,1.57.6,6.76,6.76,0,0,0,6.68-.28,8.23,8.23,0,0,0,.78-.53A12,12,0,0,1,34.1,7s-1.43,3.28.09,5A3.76,3.76,0,0,1,35,13.26a8.47,8.47,0,0,1,.22,4.88,6.16,6.16,0,0,1-2,3.14c-.61.52-1,1.5,1,3.1,0,0-6.24-2.49-11,.17,0,0-9.38,6.16-9.78,2,0,0-.38-2.57-5.48,1.81a29.68,29.68,0,0,0-1-17.2s4.31,5,6.17,1.55C13.17,12.66,13.22,12.58,13.27,12.5Z"/></clipPath></defs><title>icon-usa</title><g class="cls-2"><path class="cls-3" d="M-2.1,7.89c15.16,9,31.16-8.87,48-2.1-1.41,7.36-3.09,14.58-5,21.61-12-5-23.21,9.27-33.55,6.76C4.45,25.68,1.31,17-2.1,7.89Z" transform="translate(2.1 -4.22)"/><path class="cls-4" d="M43.57,13.59C29,8.13,15.16,23.58,2.15,18l-.5-1.38C14.91,22.53,29,6.91,43.81,12.44Z" transform="translate(2.1 -4.22)"/><path class="cls-4" d="M43.08,15.88C29,10.57,15.65,25.68,3.13,20.78c-.16-.46-.32-.92-.49-1.37C15.41,24.63,29,9.35,43.32,14.74Z" transform="translate(2.1 -4.22)"/><path class="cls-4" d="M42.56,18.17C29,13,16.13,27.78,4.1,23.51l-.48-1.37C15.89,26.73,29,11.79,42.82,17,42.74,17.41,42.65,17.79,42.56,18.17Z" transform="translate(2.1 -4.22)"/><path class="cls-4" d="M44.94,6.67C28.87.84,13.58,17.28-.91,9.67l-.52-1.41c14.73,8,30.26-8.63,46.59-2.76C45.09,5.89,45,6.28,44.94,6.67Z" transform="translate(2.1 -4.22)"/><path class="cls-4" d="M44.5,9C28.92,3.27,14.13,19.38.13,12.47,0,12-.21,11.54-.39,11.07c14.25,7.26,29.28-9,45.12-3.24C44.65,8.21,44.58,8.6,44.5,9Z" transform="translate(2.1 -4.22)"/><path class="cls-4" d="M44,11.29C29,5.7,14.65,21.48,1.15,15.26L.64,13.87c13.75,6.55,28.3-9.39,43.64-3.73Z" transform="translate(2.1 -4.22)"/><path class="cls-5" d="M19.5,19.31c-5.6,2-11.06,3.48-16.37,1.47Q.94,14.62-1.43,8.26c6.25,3.31,12.64,2.34,19.18.48Q18.71,14,19.5,19.31Z" transform="translate(2.1 -4.22)"/><path class="cls-4" d="M41.49,22.7C28.86,17.92,17,32,6,28.91c-.15-.44-.31-.89-.46-1.34,11.29,3.38,23.37-10.88,36.24-6Z" transform="translate(2.1 -4.22)"/><path class="cls-4" d="M40.93,24.94c-12.14-4.56-23.49,9.17-34,6.65l-.45-1.34c10.8,2.81,22.39-11.1,34.77-6.43C41.12,24.2,41,24.57,40.93,24.94Z" transform="translate(2.1 -4.22)"/><path class="cls-4" d="M40.35,27.18c-11.65-4.34-22.5,9-32.56,7.07l-.45-1.33c10.31,2.25,21.41-11.31,33.3-6.86C40.54,26.44,40.44,26.81,40.35,27.18Z" transform="translate(2.1 -4.22)"/><path class="cls-4" d="M42,20.44c-13.13-5-25.46,9.45-37,5.78-.16-.45-.32-.9-.47-1.35,11.78,4,24.35-10.63,37.72-5.57C42.21,19.68,42.13,20.06,42,20.44Z" transform="translate(2.1 -4.22)"/><circle class="cls-3" cx="10.76" cy="9.69" r="0.55"/><circle class="cls-3" cx="12.86" cy="11.22" r="0.55"/><circle class="cls-3" cx="15.07" cy="8.76" r="0.55"/><circle class="cls-3" cx="17.22" cy="8.3" r="0.55"/><circle class="cls-3" cx="19.38" cy="7.84" r="0.55"/><circle class="cls-3" cx="9.07" cy="12.3" r="0.55"/><circle class="cls-3" cx="11.14" cy="11.94" r="0.46"/><circle class="cls-3" cx="15.53" cy="10.92" r="0.55"/><circle class="cls-3" cx="17.69" cy="10.46" r="0.55"/><circle class="cls-3" cx="19.84" cy="10" r="0.55"/><circle class="cls-3" cx="9.53" cy="14.45" r="0.55"/><circle class="cls-3" cx="11.69" cy="13.99" r="0.55"/><circle class="cls-3" cx="13.84" cy="13.53" r="0.55"/><circle class="cls-3" cx="15.99" cy="13.07" r="0.55"/><circle class="cls-3" cx="18.15" cy="12.61" r="0.55"/><circle class="cls-3" cx="20.3" cy="12.15" r="0.55"/><circle class="cls-3" cx="9.99" cy="16.61" r="0.55"/><circle class="cls-3" cx="12.15" cy="16.15" r="0.55"/><circle class="cls-3" cx="14.3" cy="15.68" r="0.55"/><circle class="cls-3" cx="16.45" cy="15.22" r="0.55"/><circle class="cls-3" cx="18.61" cy="14.76" r="0.55"/><circle class="cls-3" cx="20.76" cy="14.3" r="0.55"/><polygon class="cls-3" points="43.12 21.05 6.95 24.55 7.05 25.65 43.22 22.15 43.12 21.05 43.12 21.05"/><path class="cls-6" d="M22.45,7.36v1c0,.18,4,13.1,8.78,15.45,1.36.67,0,1.83-1.05,2.18-2.15.67-4.44-.93-5.19-3.57-1.42-5-3.49-12.88-2.68-14.06.55-.8.31-.87,0-.52S21.19,7.58,22.45,7.36Z" transform="translate(2.1 -4.22)"/><g class="cls-7"><g class="cls-8"><path d="M11.31,12.92c.17,2.64.29,5.28.32,7.93,0,1.91.73,7-.49,8.57l1.29-.74c1.66.2,1-5.3,1.05-6.23,0-1.21.29-2.39.36-3.59,0-.52-.5-4.49-.33-4.65H11.39l.06,0c1.44,1.27,3.57-.84,2.12-2.12l0,1.74-2.56-1.06c-.69,5.66.4,11.59-.1,17.32l2.95-.4L13.63,29a1.53,1.53,0,0,0-2.75-.36l-.19.26,2.79.76a90.09,90.09,0,0,0,.26-15.84l-3,.39a9.45,9.45,0,0,1,.3,1.57c.25,1.9,3.14,1.09,2.89-.8a9.13,9.13,0,0,0-.29-1.56,1.51,1.51,0,0,0-2.95.4,96.09,96.09,0,0,1-.26,15.84c-.19,1.66,2,1.77,2.8.75l.19-.25-2.74-.36.28.71a1.51,1.51,0,0,0,3-.4c.5-5.73-.59-11.66.1-17.32.17-1.39-1.7-1.84-2.56-1.06a1.72,1.72,0,0,0-.05,2.5c1.44,1.27,3.57-.84,2.12-2.12l-.06-.05a1.53,1.53,0,0,0-2.12,0c-.85.8-.7,2.27-.67,3.33.06,2.39-.15,4.64-.24,7-.07,2.14-.51,4.38-.48,6.47a2.83,2.83,0,0,0,1.07,2.39c2,1.34,3.19-.83,3.42-2.52.67-5.14.15-10.72-.18-15.87-.13-1.91-3.13-1.93-3,0Z" transform="translate(2.1 -4.22)"/></g></g></g></svg>