<svg id="Capa_1" data-name="Capa 1" xmlns="http://www.w3.org/2000/svg" viewBox="0 0 248.59 90.17"><title>weell</title><path d="M108.63,49.69c-1.74-1.54-6.09-5.08-10-5.7,0,0,10,4.52,6.25,17.46,0,0-14.79,42.24-31.26,41.6,0,0-9.84-.58-2.23-15.69l14-25.17s-4.44-3.3-8.92,3.75c0,0-17,29.16-18.43,31.09,0,0-4,6.87-10.09,6.08,0,0-7.54.32-1.13-10.25l17-29.92c1.3-2.28,1.34-5.16-1.22-5.8-4-1-10.71.6-19.81,7.68,0,0,16.09-6.2,11.43,1.48l-12.45,21c-.92,1.54-2.08,3.34-3,4.89-3.3,5.7-7.64,13.52-.17,15.88,0,0,16.51,5.12,25-11.12,0,0-2.54,13.11,11.87,11.86,0,0,11.92-1.37,23-18.84,0,0,20.33-29,11.55-38.57A19.87,19.87,0,0,0,108.63,49.69Z" transform="translate(-34.62 -20.38)"/><path d="M115.26,98.61a10.86,10.86,0,0,1-.52-6.31,2.83,2.83,0,0,1,2.08-2.22c4.7-1.18,18.72-5.15,24.48-11.44,0,0,2-1.7.09-9.23,0,0-2-9.62-11.84-4.59,0,0-14.79,9-21.48,23.22,0,0-10.42,18.77,6.8,20.62A34.3,34.3,0,0,0,134.43,105c2.58-1.24,7.69-4.58,15.3-13.75C142.31,98,120.34,109.49,115.26,98.61Zm2.12-12.69c2.88-4.33,11.78-13.16,11.78-13.16,6.63-6.91,8.17-.32,8.17-.32,1.2,3.8-2.52,6.14-2.52,6.14a45.19,45.19,0,0,1-9.8,6.25l.32-.18C125.12,84.71,114.82,89.77,117.38,85.92Z" transform="translate(-34.62 -20.38)"/><path d="M198.23,92.79s.45-4.24,1.62-4.91c5.15-2.94,20.78-12.67,30.06-27.26,0,0,2.93-4,5.75-21,0,0,4-21.8-8.33-9.85,0,0-16.93,14.31-32,47.13,0,0-14,28.3,6.77,31.52,6.72,1,15.81-2.73,23-10.27a58.94,58.94,0,0,0,11.54-15.81C221.09,99.84,196.71,112.48,198.23,92.79Zm4.44-14.61c4.83-11.75,20.86-38.83,20.86-38.83C234,23.3,230,46.71,230,46.71a28.8,28.8,0,0,1-6.13,14.08,100.37,100.37,0,0,1-13.06,14.72,5.55,5.55,0,0,0,.41-.42C211,75.24,198.75,87.72,202.67,78.18Z" transform="translate(-34.62 -20.38)"/><path d="M241.83,93.45s-.36-3,2.41-10.84a9.59,9.59,0,0,1,3.83-4.78c5.07-2.67,20.41-11.52,29.35-25.08,0,0,2.83-3.7,5.3-19.68,0,0,3.56-20.44-8.46-9.43A182.21,182.21,0,0,0,239.31,73.8s-15,32.92,4.68,36.53c6.68,1.23,14.38-2.64,20.27-10.51,3.4-4.53,10.07-12.17,6.36-23.31,1,5,1,9-3.59,15.13C257.27,104.69,240.79,110.39,241.83,93.45Zm8.86-24.69c4.57-11,20-36.15,20-36.15,10.1-14.92,6.54,7,6.54,7a25.35,25.35,0,0,1-5.82,13.13A91.11,91.11,0,0,1,258.7,66.4c.24-.22.36-.35.4-.39C258.86,66.15,247,77.66,250.69,68.76Z" transform="translate(-34.62 -20.38)"/><path d="M156.8,98.61a10.86,10.86,0,0,1-.52-6.31,2.83,2.83,0,0,1,2.08-2.22c4.7-1.18,18.72-5.15,24.48-11.44,0,0,2-1.7.09-9.23,0,0-2-9.62-11.84-4.59,0,0-14.79,9-21.48,23.22,0,0-10.42,18.77,6.8,20.62A34.3,34.3,0,0,0,176,105c2.58-1.24,7.69-4.58,15.3-13.75C183.85,98,161.88,109.49,156.8,98.61Zm2.12-12.69c2.88-4.33,11.78-13.16,11.78-13.16,6.63-6.91,8.17-.32,8.17-.32,1.2,3.8-2.52,6.14-2.52,6.14a45.19,45.19,0,0,1-9.8,6.25l.32-.18C166.66,84.71,156.36,89.77,158.92,85.92Z" transform="translate(-34.62 -20.38)"/></svg>